<?xml version="1.0"?>
<svg width="1660.49" height="1101.28" xmlns="http://www.w3.org/2000/svg" xmlns:svg="http://www.w3.org/2000/svg">
 <g class="layer">
  <title>Layer 1</title>
  <path class="cls-1" d="m420.26,1075.84l-328,0l0,-803.43l328,0l0,803.43zm-310,-17.87l292.1,0l0,-767.64l-292.12,0l0.02,767.64z" fill="#000000" id="svg_1" stroke="#000000"/>
  <path class="cls-1" d="m1040.4,977.01l-328,0l0,-704.6l328,0l0,704.6zm-310.08,-17.87l292.16,0l0,-668.81l-292.16,0l0,668.81z" fill="#000000" id="svg_2" stroke="#000000"/>
  <path class="cls-1" d="m1350.47,779.35l-328,0l0,-506.94l328,0l0,506.94zm-310.07,-17.87l292.15,0l0,-471.15l-292.15,0l0,471.15z" fill="#000000" id="svg_3"/>
  <path class="cls-1" d="m1660.49,779.35l-327.93,0l0,-506.94l327.93,0l0,506.94zm-310,-17.92l292.1,0l0,-471.1l-292.1,0l0,471.1z" fill="#000000" id="svg_4" stroke="#000000"/>
  <path class="cls-1" d="m324.15,364.16s-48.33,-5.47 -68.19,-5.47c-25.38,0 -37.37,9.24 -37.37,24.58c0,14.72 9.24,19.87 48.33,32.2c50.33,16.09 65.74,30.11 65.74,68.75c0,50.67 -34.58,74.24 -80.52,74.24c-31.84,0 -77.71,-10.56 -77.71,-10.56l4.78,-36.63s45.94,6.21 70.26,6.21c25.34,0 36.29,-12 36.29,-30.14c0,-14.32 -8.21,-20.83 -41.82,-30.41c-52.39,-15.06 -72.31,-32.87 -72.31,-70.13c0,-48.27 32.25,-69.16 79.55,-69.16c31.16,0 76.75,9.25 76.75,9.25l-3.78,37.27z" fill="#000000" id="svg_5" stroke="#000000"/>
  <path class="cls-1" d="m876.41,515.38c27.73,0 41.43,-13.35 41.43,-40.75l0,-155l47.31,0l0,154c0,58.21 -30.49,82.79 -88.74,82.79s-88.73,-24.58 -88.73,-82.79l0,-153.97l47.24,0l0,155c0,27.74 13.69,40.75 41.49,40.75" fill="#000000" id="svg_6"/>
  <path class="cls-1" d="m1097.69,554.41l0,-232.7l78.46,0c81.19,0 99.06,34.58 99.06,111.89c0,79.38 -15.46,120.81 -99.06,120.81l-78.46,0zm78.46,-191.62l-31.16,0l0,150.54l31.16,0c45.93,0 50.39,-28.07 50.39,-79.73c0,-51 -4.46,-70.81 -50.39,-70.81" fill="#000000" id="svg_7" stroke="#000000"/>
  <polygon class="cls-1" points="1520.52 554.41 1473.22 554.41 1473.22 460.31 1401.26 321.71 1453.7 321.71 1496.5 414.44 1539.35 321.71 1591.79 321.71 1520.52 460.31 1520.52 554.41" fill="#000000" id="svg_8" stroke="#000000"/>
  <polygon class="cls-1" points="52.49 106.48 72.35 106.48 124.51 155.54 177.74 106.81 197.6 106.81 51.06 240.92 30.87 240.92 88.5 188.41 0 107.16 19.46 106.81 97.34 178.37 114.24 164.22 52.49 106.48" fill="#e5362e" id="svg_9"/>
  <polygon class="cls-1" points="320.28 240.91 302.26 240.91 253.53 196.12 204.56 240.91 184.76 240.91 331.3 106.47 351.49 106.47 291.18 162.23 376.95 240.91 358.18 240.91 281.31 171.13 264.42 186.19 320.28 240.91" fill="#e5362e" id="svg_10"/>
  <polygon class="cls-1" points="82.74 240.91 101.45 240.91 247.64 107.05 227.1 107.05 82.74 240.91" fill="#e5362e" id="svg_11"/>
  <polygon class="cls-1" points="135.98 240.91 154.69 240.91 300.88 107.05 280.34 107.05 135.98 240.91" fill="#e5362e" id="svg_12"/>
  <path class="cls-1" d="m525.88,1047.42a30.63,30.63 0 0 1 -5.66,10.62a28.07,28.07 0 0 1 -9.41,7.13a31.45,31.45 0 0 1 -12.9,2.5l-18.94,0l0,-67.19l18.94,0a30.47,30.47 0 0 1 12.67,2.52a27.48,27.48 0 0 1 9.42,7a28.92,28.92 0 0 1 5.88,10.61a47.76,47.76 0 0 1 0,26.88m-28,27a41,41 0 0 0 15.58,-2.86a32.88,32.88 0 0 0 11.82,-8.17a37.16,37.16 0 0 0 7.59,-12.71a50.93,50.93 0 0 0 2.68,-16.72a54.13,54.13 0 0 0 -2.34,-15.64a37.49,37.49 0 0 0 -7.2,-12.72a34.07,34.07 0 0 0 -11.69,-8.62a39.68,39.68 0 0 0 -16.44,-3.25l-26.73,0l0,80.69l26.73,0z" fill="#e5362e" id="svg_13"/>
  <path class="cls-1" d="m545.91,1074.42l7.47,0l0,-60.49l-7.47,0l0,60.49zm0,-68.31l7.47,0l0,-12.38l-7.47,0l0,12.38z" fill="#e5362e" id="svg_14"/>
  <path class="cls-1" d="m602.15,1069.79a14.86,14.86 0 0 0 6.22,-12.5a12.31,12.31 0 0 0 -1.54,-6.21a13.56,13.56 0 0 0 -4.23,-4.28a28.85,28.85 0 0 0 -7,-3.08c-2.85,-0.81 -6.1,-1.78 -9.75,-2.63c-2.62,-0.63 -4.91,-1.15 -6.62,-1.66a18.13,18.13 0 0 1 -4.57,-1.88a5.34,5.34 0 0 1 -2.45,-2.46a7.11,7.11 0 0 1 -0.79,-3.76a9.87,9.87 0 0 1 1.08,-4.85a9.37,9.37 0 0 1 3.08,-3.26a15.23,15.23 0 0 1 4.4,-2a25,25 0 0 1 5.64,-0.64a28.38,28.38 0 0 1 9.52,1.72a22.29,22.29 0 0 1 7.94,5l3.54,-4.28a22.7,22.7 0 0 0 -8.78,-6.62a27.78,27.78 0 0 0 -12,-2.52a30.33,30.33 0 0 0 -8.45,1.15a19.86,19.86 0 0 0 -6.85,3.26a16,16 0 0 0 -6.39,13a11.21,11.21 0 0 0 1.21,5.7a10.11,10.11 0 0 0 3.59,3.78a26.71,26.71 0 0 0 5.93,2.85a89,89 0 0 0 8.67,2.28c2.8,0.74 5.43,1.37 7.59,2a26.49,26.49 0 0 1 5.54,2.22a11,11 0 0 1 3.25,2.67a8,8 0 0 1 1.09,4a9,9 0 0 1 -4.29,8c-2.79,1.88 -6.44,2.85 -11,2.85a30.62,30.62 0 0 1 -10.85,-1.88a34.23,34.23 0 0 1 -9.93,-5.87l-3.36,4.9a28.74,28.74 0 0 0 11,7.13a34.82,34.82 0 0 0 13.24,2.47c6.79,0 12.21,-1.5 16.32,-4.63" fill="#e5362e" id="svg_15"/>
  <path class="cls-1" d="m620.26,1055.69a28.76,28.76 0 0 0 6.11,9.71a26.46,26.46 0 0 0 9.17,6.55a25.86,25.86 0 0 0 11.6,2.47a27.79,27.79 0 0 0 7.86,-1.1a25.61,25.61 0 0 0 7.08,-2.91a23.22,23.22 0 0 0 5.43,-4.62a21,21 0 0 0 3.53,-5.77l-7.36,-2.1a9.63,9.63 0 0 1 -2.4,3.77a15.31,15.31 0 0 1 -4,3a19.53,19.53 0 0 1 -5,2.23a20.55,20.55 0 0 1 -5.53,0.73a17.6,17.6 0 0 1 -8.1,-1.76a22,22 0 0 1 -6.73,-5.08a20.94,20.94 0 0 1 -4.51,-7.53a26.79,26.79 0 0 1 -1.66,-9.36a25.63,25.63 0 0 1 1.54,-9.25a21.92,21.92 0 0 1 4.4,-7.35a22.64,22.64 0 0 1 6.73,-4.91a18.64,18.64 0 0 1 8.22,-1.83a18.3,18.3 0 0 1 9.64,2.74a20.19,20.19 0 0 1 7,7.36l7.25,-2.39a23.84,23.84 0 0 0 -9.25,-10.5a26.71,26.71 0 0 0 -14.26,-3.89a28.7,28.7 0 0 0 -20.88,8.79a29,29 0 0 0 -6,9.59a32.62,32.62 0 0 0 -2.07,11.63a30.22,30.22 0 0 0 2.18,11.76" fill="#e5362e" id="svg_16"/>
  <path class="cls-1" d="m687.93321,1035.09a23.86,23.86 0 0 1 4.51,-7.53a22.71,22.71 0 0 1 6.61,-5a17.21,17.21 0 0 1 8.11,-1.94a17.87,17.87 0 0 1 8.15,1.94a22.36,22.36 0 0 1 6.68,5a23.36,23.36 0 0 1 4.57,7.48a26,26 0 0 1 1.7,9.13a25.65,25.65 0 0 1 -1.7,9.24a22.86,22.86 0 0 1 -4.57,7.42a22.56,22.56 0 0 1 -6.68,5.08a18.48,18.48 0 0 1 -8.15,1.76a17.82,17.82 0 0 1 -8.11,-1.76a20.61,20.61 0 0 1 -6.73,-5a21.84,21.84 0 0 1 -4.39,-7.41a24.81,24.81 0 0 1 -1.66,-9.19a26.44,26.44 0 0 1 1.66,-9.25m30.81,36.86a28.83,28.83 0 0 0 9.13,-6.49a30.65,30.65 0 0 0 5.82,-9.66a31,31 0 0 0 2.16,-11.52a32.13,32.13 0 0 0 -2.16,-11.69a33.65,33.65 0 0 0 -5.93,-9.53a31,31 0 0 0 -9.13,-6.62a25.9,25.9 0 0 0 -11.47,-2.52a25.16,25.16 0 0 0 -11.36,2.52a30.09,30.09 0 0 0 -9.08,6.62a29.69,29.69 0 0 0 -6,9.53a31.11,31.11 0 0 0 -2.16,11.69a32.19,32.19 0 0 0 2.05,11.52a29,29 0 0 0 6,9.66a27.78,27.78 0 0 0 9.06,6.49a25.35,25.35 0 0 0 11.48,2.47a26.31,26.31 0 0 0 11.58,-2.47" fill="#e5362e" id="svg_17"/>
  <polygon class="cls-1" points="778.89 1074.42 802.4 1013.92 795.15 1013.92 775.13 1067.17 755.33 1013.92 747.5 1013.92 771.13 1074.42 778.89 1074.42" fill="#e5362e" id="svg_18"/>
  <path class="cls-1" d="m819.92,1040.8a25,25 0 0 1 2,-8.1a18.4,18.4 0 0 1 4.51,-6.4a23.57,23.57 0 0 1 6.61,-4.21a23.32,23.32 0 0 1 8,-1.49a22.72,22.72 0 0 1 7.94,1.49a23.57,23.57 0 0 1 6.61,4.21a24.48,24.48 0 0 1 4.62,6.29a22.91,22.91 0 0 1 2.17,8.21l-42.46,0zm29.23,32.52a23.09,23.09 0 0 0 7,-3a24.65,24.65 0 0 0 5.65,-4.63a21.48,21.48 0 0 0 3.87,-6l-6.61,-1.54a11.71,11.71 0 0 1 -2.91,3.88a20.31,20.31 0 0 1 -4.23,3a18.43,18.43 0 0 1 -5.07,1.89a20.71,20.71 0 0 1 -5.53,0.73a18.79,18.79 0 0 1 -7.89,-1.48a22.14,22.14 0 0 1 -6.62,-4.16a20.8,20.8 0 0 1 -4.67,-6.45a19.72,19.72 0 0 1 -2.17,-8l49.48,0a7.7,7.7 0 0 0 0.05,-1l0,-1.76a32.75,32.75 0 0 0 -8,-21.63a28,28 0 0 0 -9,-6.73a25.8,25.8 0 0 0 -11.58,-2.52a27.31,27.31 0 0 0 -11.52,2.4a30,30 0 0 0 -9.19,6.5a29.17,29.17 0 0 0 -5.94,9.59a28.81,28.81 0 0 0 -2.17,11.53a29.52,29.52 0 0 0 2.17,11.75a29.4,29.4 0 0 0 15.13,16.26a25.72,25.72 0 0 0 11.58,2.47a29.27,29.27 0 0 0 8.15,-1.1" fill="#e5362e" id="svg_19"/>
  <path class="cls-1" d="m907.33,1013.7a3,3 0 0 1 -1.43,0.22a20,20 0 0 0 -11.69,3.89a27.52,27.52 0 0 0 -8.68,10.67l0,-14.56l-7,0l0,60.5l7.47,0l0,-37.61a22.81,22.81 0 0 1 8,-11.87a21.31,21.31 0 0 1 13.35,-4.34l-0.02,-6.9z" fill="#e5362e" id="svg_20"/>
  <path class="cls-1" d="m951.15,1101.06a21.39,21.39 0 0 0 2.39,0.22l2.17,0a11.35,11.35 0 0 0 7.7,-2.5a15.74,15.74 0 0 0 4,-6l30,-78.86l-7.26,0l-19.8,54.28l-21.46,-54.28l-7.74,0l25.22,61.75c-1.71,4.22 -3.14,7.47 -4,10.09a39.09,39.09 0 0 1 -2.51,5.65a8.3,8.3 0 0 1 -2.28,2.63a7.68,7.68 0 0 1 -3.14,0.52l-1.6,0c-0.57,0 -1.08,-0.12 -1.65,-0.17l-0.04,6.67z" fill="#e5362e" id="svg_21"/>
  <path class="cls-1" d="m1015.47,1035.09a25.38,25.38 0 0 1 4.56,-7.53a23,23 0 0 1 6.62,-5a17,17 0 0 1 8.11,-1.94a17.63,17.63 0 0 1 8.09,1.94a21.88,21.88 0 0 1 6.74,5a23.34,23.34 0 0 1 4.56,7.48a25.78,25.78 0 0 1 1.71,9.13a25.44,25.44 0 0 1 -1.71,9.24a22.84,22.84 0 0 1 -4.56,7.42a22.07,22.07 0 0 1 -6.74,5.08a18.22,18.22 0 0 1 -8.09,1.76a17.62,17.62 0 0 1 -8.11,-1.76a20.61,20.61 0 0 1 -6.73,-5a23,23 0 0 1 -4.45,-7.41a24.81,24.81 0 0 1 -1.6,-9.19a26.39,26.39 0 0 1 1.6,-9.25m30.87,36.86a28.72,28.72 0 0 0 9.13,-6.49a31.61,31.61 0 0 0 5.82,-9.66a31,31 0 0 0 2.16,-11.52a32.13,32.13 0 0 0 -2.16,-11.69a35,35 0 0 0 -5.93,-9.53a31.12,31.12 0 0 0 -9.14,-6.62a25.77,25.77 0 0 0 -11.46,-2.52a25.24,25.24 0 0 0 -11.37,2.52a30.17,30.17 0 0 0 -9.07,6.62a29.52,29.52 0 0 0 -6,9.53a31.11,31.11 0 0 0 -2.16,11.69a32.4,32.4 0 0 0 2,11.52a29.19,29.19 0 0 0 6,9.66a27.82,27.82 0 0 0 9.07,6.49a25.29,25.29 0 0 0 11.48,2.47a26.28,26.28 0 0 0 11.58,-2.47" fill="#e5362e" id="svg_22"/>
  <path class="cls-1" d="m1111.33,1070.65a27.9,27.9 0 0 0 10.27,-10.62l0,7.25a8,8 0 0 0 1.6,5.26a5.6,5.6 0 0 0 4.33,1.87l1.21,0a4.13,4.13 0 0 0 2.16,-1l0,-5.65c-1.82,0 -2.69,-1.09 -2.69,-3.26l0,-50.62l-7.47,0l0,37.49a30.86,30.86 0 0 1 -3.59,6.8a24.71,24.71 0 0 1 -4.85,5.19a20.52,20.52 0 0 1 -6,3.25a18.31,18.31 0 0 1 -6.45,1.15c-9,0 -13.46,-6.74 -13.46,-20.27l0,-33.61l-7.48,0l0,34.88c0,8.5 1.54,14.89 4.57,19.22s7.81,6.39 14.08,6.39a27.39,27.39 0 0 0 13.76,-3.76" fill="#e5362e" id="svg_23"/>
  <path class="cls-1" d="m1177.58,1013.7a3,3 0 0 1 -1.43,0.22a20,20 0 0 0 -11.69,3.89a27.13,27.13 0 0 0 -8.62,10.67l0,-14.56l-7.08,0l0,60.5l7.47,0l0,-37.61a22.91,22.91 0 0 1 8.05,-11.87a21,21 0 0 1 13.3,-4.34l0,-6.9z" fill="#e5362e" id="svg_24"/>
  <path class="cls-1" d="m1239.21,1066.65a23.65,23.65 0 0 1 -5.53,-3.08a21,21 0 0 1 -4.69,-4.62a25.21,25.21 0 0 1 -3.43,-5.77l0,-17.62a13.44,13.44 0 0 1 2.34,-5.71a21.64,21.64 0 0 1 4.68,-4.68a23.2,23.2 0 0 1 5.94,-3.26a16,16 0 0 1 6.1,-1.31a18.37,18.37 0 0 1 8.44,2a22.23,22.23 0 0 1 6.68,5.12a24.74,24.74 0 0 1 4.58,7.54a25,25 0 0 1 1.71,9a28.93,28.93 0 0 1 -1.37,8.67a24.18,24.18 0 0 1 -4.23,7.59a20.94,20.94 0 0 1 -6.5,5.24a17.87,17.87 0 0 1 -8.45,2a19.17,19.17 0 0 1 -6.27,-1m18.94,5.3a25.47,25.47 0 0 0 8.33,-6.49a31.66,31.66 0 0 0 5.31,-9.66a33.68,33.68 0 0 0 1.94,-11.63a32.51,32.51 0 0 0 -7.82,-21a30,30 0 0 0 -8.61,-6.73a23.91,23.91 0 0 0 -11,-2.52a22.91,22.91 0 0 0 -12.33,3.54a30,30 0 0 0 -9.23,9.37l0,-12.91l-6.69,0l0,87.36l7.47,0l0,-40a29.67,29.67 0 0 0 9.08,9.42a22,22 0 0 0 12.89,3.72a22.44,22.44 0 0 0 10.62,-2.47" fill="#e5362e" id="svg_25"/>
  <path class="cls-1" d="m1292.67,1035.09a25.38,25.38 0 0 1 4.56,-7.53a22.93,22.93 0 0 1 6.63,-5a17,17 0 0 1 8.1,-1.94a17.7,17.7 0 0 1 8.1,1.94a21.84,21.84 0 0 1 6.73,5a23.19,23.19 0 0 1 4.57,7.48a26,26 0 0 1 1.71,9.13a25.65,25.65 0 0 1 -1.71,9.24a22.7,22.7 0 0 1 -4.57,7.42a22,22 0 0 1 -6.73,5.08a18.3,18.3 0 0 1 -8.1,1.76a17.6,17.6 0 0 1 -8.1,-1.76a20.54,20.54 0 0 1 -6.74,-5a23.17,23.17 0 0 1 -4.45,-7.41a25,25 0 0 1 -1.6,-9.19a26.62,26.62 0 0 1 1.6,-9.25m30.87,36.86a27.61,27.61 0 0 0 9.07,-6.49a30.43,30.43 0 0 0 5.88,-9.66a32.26,32.26 0 0 0 2.17,-11.52a30.83,30.83 0 0 0 -8.16,-21.22a29.85,29.85 0 0 0 -9.08,-6.62a26,26 0 0 0 -11.46,-2.52a25,25 0 0 0 -11.36,2.52a31,31 0 0 0 -9.13,6.62a30.41,30.41 0 0 0 -5.93,9.53a29.8,29.8 0 0 0 -2.16,11.69a30.93,30.93 0 0 0 2,11.52a29.88,29.88 0 0 0 5.94,9.66a28.5,28.5 0 0 0 9.13,6.49a25.28,25.28 0 0 0 11.47,2.47a26.43,26.43 0 0 0 11.58,-2.47" fill="#e5362e" id="svg_26"/>
  <path class="cls-1" d="m1382.32,1065.05a16.62,16.62 0 0 1 -3.14,1.59a13.75,13.75 0 0 1 -5.6,1a7.18,7.18 0 0 1 -4.67,-1.6a5.91,5.91 0 0 1 -2.29,-4.79l0,-40.7l13.35,0l0,-6.67l-13.35,0l0,-20.19l-7.59,0l0,20.19l-7.88,0l0,6.67l7.87,0l0,42.47a12.43,12.43 0 0 0 1,5a10.75,10.75 0 0 0 2.74,3.6a9.59,9.59 0 0 0 3.76,2.11a18.3,18.3 0 0 0 4.79,0.64a18.5,18.5 0 0 0 4.34,-0.47a16.8,16.8 0 0 0 3.77,-0.91c1.08,-0.4 2.16,-0.75 3,-1.14a18.1,18.1 0 0 0 1.93,-0.85l-2.03,-5.95z" fill="#e5362e" id="svg_27"/>
  <path class="cls-1" d="m1395.15,1040.8a24.43,24.43 0 0 1 1.94,-8.1a18.52,18.52 0 0 1 4.56,-6.4a23.48,23.48 0 0 1 6.62,-4.21a23.17,23.17 0 0 1 8,-1.49a22.58,22.58 0 0 1 7.93,1.49a25,25 0 0 1 6.62,4.21a26,26 0 0 1 4.63,6.29a23.11,23.11 0 0 1 2.16,8.21l-42.46,0zm29.27,32.52a23,23 0 0 0 7,-3a24.29,24.29 0 0 0 5.66,-4.63a22,22 0 0 0 3.88,-6l-6.63,-1.54a11.44,11.44 0 0 1 -2.91,3.88a21.35,21.35 0 0 1 -4.22,3a18.55,18.55 0 0 1 -5.07,1.89a20.94,20.94 0 0 1 -5.54,0.73a19.12,19.12 0 0 1 -7.93,-1.48a22.23,22.23 0 0 1 -6.56,-4.16a20.51,20.51 0 0 1 -4.68,-6.45a19.88,19.88 0 0 1 -2.17,-8l49.36,0a3.59,3.59 0 0 0 0.11,-1l0,-1.76a33.45,33.45 0 0 0 -8,-21.63a27.53,27.53 0 0 0 -9,-6.73a25.65,25.65 0 0 0 -11.58,-2.52a27.33,27.33 0 0 0 -11.48,2.4a29.63,29.63 0 0 0 -9.18,6.5a28.19,28.19 0 0 0 -5.93,9.59a28.64,28.64 0 0 0 -2.17,11.53a29.35,29.35 0 0 0 2.17,11.75a29.36,29.36 0 0 0 15.11,16.26a25.79,25.79 0 0 0 11.59,2.47a29.34,29.34 0 0 0 8.16,-1.1" fill="#e5362e" id="svg_28"/>
  <path class="cls-1" d="m1502.2,1039.67a66,66 0 0 0 -0.85,-10.62a28.69,28.69 0 0 0 -2.91,-8.11a14.35,14.35 0 0 0 -5.31,-5.13a16,16 0 0 0 -8,-1.89a28.33,28.33 0 0 0 -24.6,14.5l0,-14.5l-6.79,0l0,60.49l7.41,0l0,-36.35a19.8,19.8 0 0 1 3.25,-7a29,29 0 0 1 5.08,-5.53a23.18,23.18 0 0 1 6,-3.6a20,20 0 0 1 6.74,-1.38a10.52,10.52 0 0 1 9.3,4.86c2,3.25 3.14,8.39 3.14,15.52l0,33.44l7.47,0l0.07,-34.7z" fill="#e5362e" id="svg_29"/>
  <path class="cls-1" d="m1541.74,1065.05a21.69,21.69 0 0 1 -3.13,1.59a14.2,14.2 0 0 1 -5.65,1a7.18,7.18 0 0 1 -4.68,-1.6a6,6 0 0 1 -2.28,-4.79l0,-40.7l13.35,0l0,-6.67l-13.35,0l0,-20.19l-7.54,0l0,20.19l-7.93,0l0,6.67l7.93,0l0,42.47a11.64,11.64 0 0 0 1,5a10.14,10.14 0 0 0 2.69,3.6a9.49,9.49 0 0 0 3.82,2.11a18.9,18.9 0 0 0 9.07,0.17a15.91,15.91 0 0 0 3.77,-0.91c1.08,-0.4 2.17,-0.75 3,-1.14a20.87,20.87 0 0 0 2,-0.85l-2.07,-5.95z" fill="#e5362e" id="svg_30"/>
  <path class="cls-1" d="m1550.7,1074.42l7.45,0l0,-60.49l-7.48,0l0.03,60.49zm0,-68.31l7.45,0l0,-12.38l-7.48,0l0.03,12.38z" fill="#e5362e" id="svg_31"/>
  <path class="cls-1" d="m1582.32,1066.65a12.89,12.89 0 0 1 -4.34,-3a12,12 0 0 1 -2.91,-4.39a13.33,13.33 0 0 1 -1.08,-5.35a11.26,11.26 0 0 1 5,-9.48c3.37,-2.39 7.71,-3.66 13,-3.66a35.78,35.78 0 0 1 8.22,0.92a55.47,55.47 0 0 1 7.94,2.62l0,10.17a6.56,6.56 0 0 1 -0.58,2.35a6.74,6.74 0 0 1 -1.48,2.27a18.85,18.85 0 0 1 -7.48,6.34a25.3,25.3 0 0 1 -10.85,2.27a14.57,14.57 0 0 1 -5.41,-1m16.66,5.13a26.38,26.38 0 0 0 10.1,-7.69l0.23,4.73a5.18,5.18 0 0 0 1.71,4.1a6,6 0 0 0 4.45,1.5a6.38,6.38 0 0 0 2.91,-1.15l0,-5.6c-1.94,0 -2.79,-1 -2.79,-3.24l0,-26.88q0,-11 -6.17,-17.35c-4.17,-4.22 -9.87,-6.28 -17.12,-6.28c-7.07,0 -14.32,2.69 -21.68,8.17l2.62,3.59a50.68,50.68 0 0 1 9.42,-3.71a36.13,36.13 0 0 1 9.08,-1.37c5.07,0 9.12,1.31 12,3.71a12.28,12.28 0 0 1 4.35,9.76l0,4.22a36.16,36.16 0 0 0 -8.17,-3.08a38.48,38.48 0 0 0 -9,-1.14a31.1,31.1 0 0 0 -9.76,1.48a25.54,25.54 0 0 0 -7.7,4.11a18.72,18.72 0 0 0 -5,6.28a18,18 0 0 0 -1.72,8a22.16,22.16 0 0 0 1.38,8.09a18.59,18.59 0 0 0 4.05,6.5a17.38,17.38 0 0 0 6.16,4.28a17.1,17.1 0 0 0 7.58,1.61a32.48,32.48 0 0 0 13,-2.64" fill="#e5362e" id="svg_32"/>
  <path class="cls-1" d="m1634.15,1063.39c0,3.55 1,6.29 2.91,8.17s4.79,2.86 8.26,2.86a34.17,34.17 0 0 0 5.31,-0.46a22.75,22.75 0 0 0 5.19,-1.32l-1.42,-6.22a14.07,14.07 0 0 1 -3.14,0.92a14.63,14.63 0 0 1 -2.79,0.33c-2.17,0 -3.94,-0.51 -5,-1.75a6.84,6.84 0 0 1 -1.71,-5.09l0,-67.11l-7.61,0l0,69.67z" fill="#e5362e" id="svg_33"/>
  <path fill="#ffffff" stroke-width="19" opacity="undefined" d="m422.26001,0l285.31,0l0,861.63l-285.31,0l0,-861.63z" id="svg_34" stroke="#000000"/>
  <polygon class="cls-1" points="480.69 321.71 651.98 321.71 651.98 363.48 590.31 363.48 590.31 554.41 543.05 554.41 543.05 363.48 480.69 363.48 480.69 321.71" fill="#000000" id="svg_35"/>
  <path class="cls-1" d="m497.97,74.35l27.28,0l0,27.67l-27.28,0l0,-27.67zm0,40.68l27.28,0l0,101.58l-27.28,0l0,-101.58z" fill="#e5362e" id="svg_36"/>
  <path class="cls-1" d="m546.42,216.6l0,-101.57l27.05,0l0,5.65s13.8,-8.1 25.44,-8.1c28.48,0 35.84,17.85 35.84,49l0,55.06l-27.27,0l0,-54.25c0,-15.46 -2.06,-25.45 -15.3,-25.45a55.6,55.6 0 0 0 -18.49,3.66l0,76l-27.27,0z" fill="#e5362e" id="svg_37"/>
  <path class="cls-1" d="m599.66,612.04a33.3,33.3 0 1 1 -33.33,-33.27a33.27,33.27 0 0 1 33.33,33.27" fill="#e5362e" id="svg_38"/>
  <path class="cls-1" d="m809.15,131.72l-36.2,0l0,-25.6l103.6,0l0,25.6l-36.8,0l0,109.2l-30.6,0l0,-109.2z" fill="#e5362e" id="svg_39"/>
  <path class="cls-1" d="m923.15,106.12l0,77.6c0,23.2 8.8,35 24.4,35c16,0 24.8,-11.2 24.8,-35l0,-77.6l30.4,0l0,75.6c0,41.6 -21,61.4 -56.2,61.4c-34,0 -54,-18.8 -54,-61.8l0,-75.2l30.6,0zm5,-7.8a13.7,13.7 0 1 1 0.4,-27.4c7.4,0 13,6 13,13.8a13.28,13.28 0 0 1 -13.2,13.6l-0.2,0zm41.6,0a13.7,13.7 0 1 1 0.2,-27.4c7.6,0 13.4,6 13.4,13.8a13.44,13.44 0 0 1 -13.4,13.6l-0.2,0z" fill="#e5362e" id="svg_40"/>
  <path class="cls-1" d="m1029.15,107.92a267.85,267.85 0 0 1 40.6,-2.8c20,0 34,3 43.59,10.6c8,6.4 12.4,15.8 12.4,28.2c0,17.2 -12.2,29 -23.8,33.2l0,0.6c9.4,3.8 14.6,12.8 18,25.2c4.2,15.2 8.4,32.8 11,38l-31.2,0c-2.2,-4 -5.39,-14.8 -9.39,-31.4c-3.61,-16.8 -9.4,-21.4 -21.8,-21.6l-9.2,0l0,53l-30.2,0l0,-133zm30.2,58l12,0c15.2,0 24.19,-7.6 24.19,-19.4c0,-12.4 -8.4,-18.6 -22.39,-18.8a76.1,76.1 0 0 0 -13.8,1l0,37.2z" fill="#e5362e" id="svg_41"/>
  <path class="cls-1" d="m1147.74,106.12l30.2,0l0,59.6l0.6,0c3,-5.2 6.2,-10 9.2,-14.8l30.6,-44.8l37.4,0l-44.59,57.36l47,77.4l-35.6,0l-33,-58.2l-11.6,14.2l0,44l-30.2,0l-0.01,-134.76z" fill="#e5362e" id="svg_42"/>
  <path class="cls-1" d="m1301.15,106.12l0,134.8l-30.6,0l0,-134.8l30.6,0zm-15.2,-7.8a13.79,13.79 0 0 1 -13.8,-13.6a13.63,13.63 0 0 1 14,-13.8c7.6,0 13.4,6 13.4,13.8a13.57,13.57 0 0 1 -13.4,13.6l-0.2,0z" fill="#e5362e" id="svg_43"/>
  <path class="cls-1" d="m1355.15,240.92l0,-55.2l-42.6,-79.6l34.8,0l13.8,32.36c4.2,9.8 7,17 10.4,25.8l0.4,0c3,-8.4 6.2,-16.2 10.2,-25.8l13.6,-32.4l34.2,0l-44.4,78.6l0,56.2l-30.4,0.04z" fill="#e5362e" id="svg_44"/>
  <path class="cls-1" d="m1521.15,183.92l-49.6,0l0,32l55.4,0l0,25l-86,0l0,-134.8l83.2,0l0,25l-52.6,0l0,28l49.6,0l0,24.8z" fill="#e5362e" id="svg_45"/>
 </g>
</svg>