<svg version="1.1" id="Minimum_Clear_Space" xmlns="http://www.w3.org/2000/svg" x="0" y="0" viewBox="0 0 689.2 115.2" xml:space="preserve"><style>.st0{fill:#5f259f}</style><path class="st0" d="M88.6 54.6c0 24.5-19.8 44.3-44.3 44.3S0 79.1 0 54.6s19.8-44.3 44.3-44.3 44.3 19.8 44.3 44.3"/><path d="M88.6 91.9V17.2c0-12.3-17.8-3.6-22.2-1-13.1 7.7-22.2 22-22.2 38.4s9.2 31 22.2 38.4c4.6 2.6 22.2 11.3 22.2-1.1" fill="#ff595a"/><path class="st0" d="M545.3 16.2c4.2 0 7.5-3.2 7.5-7.4s-3.4-7.5-7.5-7.5c-4.2 0-7.4 3.4-7.4 7.5-.1 4.1 3.2 7.4 7.4 7.4M179.4 67.4c-3.8 5.1-9.7 8-15.4 8-10.9 0-18.7-8.5-18.7-18.6 0-9.8 7.2-18.6 18.1-18.6 6.8 0 12.6 3.5 16 8v21.2zM177 31.6c-4.3-2.5-9.3-3.9-14.7-3.9-16.2 0-29.3 13.1-29.3 29.3s13.1 29.3 29.3 29.3c5.3 0 10.3-1.4 14.7-3.9 3 1.7 14.7 7.5 14.7-.7V32.3c-.1-8.2-11.8-2.4-14.7-.7m305.4 35.8c-3.8 5.1-9.7 8-15.4 8-10.9 0-18.7-8.5-18.7-18.6 0-9.8 7.2-18.6 18.1-18.6 6.8 0 12.6 3.5 16 8v21.2zm-2.5-35.8c-4.3-2.5-9.3-3.9-14.7-3.9-16.2 0-29.3 13.1-29.3 29.3s13.1 29.3 29.3 29.3c5.3 0 10.3-1.4 14.7-3.9 3 1.7 14.7 7.5 14.7-.7V32.3c0-8.2-11.7-2.4-14.7-.7m129.5 35.8c-3.8 5.1-9.7 8-15.4 8-10.9 0-18.7-8.5-18.7-18.6 0-9.8 7.2-18.6 18.1-18.6 6.8 0 12.6 3.5 16 8v21.2zM607 31.6c-4.3-2.5-9.3-3.9-14.7-3.9-16.2 0-29.3 13.1-29.3 29.3s13.1 29.3 29.3 29.3c5.3 0 10.3-1.4 14.7-3.9 3 1.7 14.7 7.5 14.7-.7V32.3c0-8.2-11.7-2.4-14.7-.7M272.2 49.7h30.7c-1.7-7.2-8.2-12.2-14.9-12.2-7.3 0-13.9 4.9-15.8 12.2m-.1 9.6c.6 9.5 8.4 17 18.2 17 5.7 0 9.6-1.9 12.5-4.2 2.3-1.8 5.7-1.6 7.8.4l3.3 3.1c-4.2 5.4-12.2 10.5-23.7 10.5-16.4 0-30.3-12.4-30.3-29.3s12.7-29.3 28.6-29.3c15.7 0 27.1 12.7 27.1 29.3 0 .5 0 1.3-.1 2.4l-43.4.1zm374.2-25.2c3-2.9 8.7-6.6 16.9-6.6 14.9 0 26 8.3 26 29.9v21.9c0 3.1-2.5 5.6-5.6 5.6h-6.7v-28c0-12.2-6.3-18.6-14.6-18.6-7.4 0-12.2 4-15.6 8v33.1c0 3.1-2.5 5.6-5.6 5.6h-6.7V34.3c0-3.1 2.5-5.6 5.6-5.6h6.3v5.4zM220.4 74.8l28.4-35.6c1.7-2.1 2.6-4.8 2.6-7.6v-2.9h-39.1c-3.1 0-6 2.3-6 5.3v8.6h3.1c2.3 0 4.2-1.5 5-3.8h21l-28.3 35.7c-1.7 2.1-2.6 4.8-2.6 7.5v3h43c3.3 0 6.1-2.7 6.1-6.1v-4.1h-33.2zm295.7-58.6c4.2 0 7.5-3.2 7.5-7.4s-3.4-7.5-7.5-7.5c-4.2 0-7.4 3.4-7.4 7.5-.1 4.1 3.2 7.4 7.4 7.4m-10 12.5v2.7c0 2.7 1.8 4.9 4.3 5.4V85h6.3c3.3 0 6.1-2.7 6.1-6V28.7h-16.7zM552 50.1V28.8h-16.7v2.7c0 2.7 1.8 4.9 4.3 5.4V87c0 7-.7 11.7-9.7 18.1l7.1 10.1c13.8-9.7 15-19.2 15-28.2V50.1zM382 67.4V46.3c3.4-4.5 9.1-8 15.9-8 10.9 0 18 8.8 18 18.6 0 12-9.7 18.6-18.6 18.6-8.6-.1-14-6.3-15.3-8.1M428.2 57c0-18.7-16-29.5-29-29.5-6.1 0-12.2 1.8-17.2 6.1V0h-6.2c-3.3 0-6.1 2.8-6.1 6.1v75.6c0 8.2 9.7 2.3 12.3-.9.9.5 7.9 5.5 17.2 5.5 15.9 0 29-13.2 29-29.3m-67.9-29.3c-14.4-1.2-17.9 4.5-20.1 7.5v-6.5H334c-3.3 0-6.1 2.7-6.1 6.1V85h6.2c3.3 0 6.1-2.7 6.1-6.1V47.8c2.2-5.4 8.2-8.5 14.1-8.5 1.8 0 3.2.2 4.5.6l1.5-12.2z"/></svg>